<?xml version='1.0' encoding='utf-8'?>
<!DOCTYPE svg>
<!-- Generator: Adobe Illustrator 13.0.0, SVG Export Plug-In . SVG Version: 6.00 Build 14948)  -->
<svg xmlns="http://www.w3.org/2000/svg" width="1.55979in" x="0px" version="1.0" y="0px" gorn="0"  height="1.89821in" viewBox="0 0 112.305 136.671" xmlns:xml="http://www.w3.org/XML/1998/namespace" style="enable-background:new 0 0 112.305 136.671;" id="Top" xml:space="preserve">
    <desc>
        <referenceFile>Multimeter.fzp_93eca484f2a64e1884bcbe2fa33c9360_2_breadboard.svg</referenceFile>
    </desc>
    <g gorn="0.0"  id="Layer_2">
        <path  style="fill:#FFDF43;" d="M21.004,128.742c-4.626-2.178-16.253,2.963-19.553-0.324c-1.915-1.906-0.348-14.66-0.348-15.955c0-31.284,0-61.624,0-94.672c0-4.797-1.035-13.97,0.324-15.333C3.648,0.229,23.502,2.11,28.24,2.11c25.683,0,42.605,0,68.141,0c0.541,0,10.955-1.635,12.921,0.325c1.764,1.758,0.346,11.423,0.346,15.957c0,33.247,0,61.154,0,95.275c0,3.396,1.942,12.521-0.411,14.828c-4.044,3.961-14.865-2.442-20.692,0.248"/>
    </g>
    <g gorn="0.1"  id="Layer_2_1_">
        <line  style="fill:none;stroke:#000000;stroke-linecap:round;" y1="132.896" x1="87.939" y2="131.751" x2="87.396"/>
        <line  style="fill:none;stroke:#000000;stroke-linecap:round;" y1="131.751" x1="87.396" y2="131.69" x2="86.129"/>
        <path  style="fill:none;stroke:#000000;stroke-linecap:round;" d="M28.843,127.882c-1.33,0.479-0.783,2.834-2.412,3.014"/>
        <line  style="fill:none;stroke:#000000;stroke-linecap:round;" y1="131.087" x1="25.226" y2="132.896" x2="24.02"/>
        <path  style="fill:none;stroke:#000000;stroke-width:2;stroke-linecap:round;" d="M21.909,128.375c-4.627-2.179-16.256,2.965-19.555-0.323c-1.915-1.908-0.347-14.663-0.347-15.96c0-31.281,0-61.618,0-94.669c0-4.797-1.034-13.97,0.325-15.333c2.219-2.226,22.07-0.346,26.812-0.346c25.685,0,42.607,0,68.143,0c0.539,0,10.955-1.635,12.921,0.325c1.764,1.758,0.344,11.423,0.344,15.957c0,33.247,0,61.155,0,95.276c0,3.396,1.943,12.522-0.41,14.827c-4.045,3.959-14.866-2.44-20.692,0.246"/>
        <path  style="fill:none;stroke:#000000;stroke-linecap:round;" d="M21.608,126.867c0.412-6.97-6.266-16.22,1.811-17.488c9.023-1.416,5.59,9.031,4.823,17.488"/>
        <line  style="fill:none;stroke:#000000;stroke-linecap:round;" y1="126.867" x1="28.24" y2="128.375" x2="28.543"/>
        <path  style="fill:none;stroke:#000000;stroke-width:2;stroke-linecap:round;" d="M28.543,128.375c18.894,0,37.788,0,56.683,0"/>
        <line  style="fill:none;stroke:#000000;stroke-linecap:round;" y1="128.375" x1="85.226" y2="126.867" x2="84.924"/>
        <path  style="fill:none;stroke:#000000;stroke-linecap:round;" d="M84.924,126.867c-0.778-7.916-5.271-18.297,3.618-17.488c8.205,0.748,2.287,9.653,3.016,17.488"/>
        <line  style="fill:none;stroke:#000000;stroke-linecap:round;" y1="126.867" x1="91.558" y2="128.375" x2="89.446"/>
        <line  style="fill:none;stroke:#000000;stroke-linecap:round;" y1="128.375" x1="21.909" y2="126.867" x2="21.608"/>
        <path  style="fill:#EDEDED;stroke:#000000;stroke-width:2.1418;stroke-linecap:round;" d="M54.173,50.635c-10.711,1.444-22.875,0.803-36.081,0.803c-2.343,0-10.379,0.577-11.368-0.424c-2.202-2.229-0.39-19.507-0.39-22.792c0-8.846-0.115-14.57,0.137-21.838c24.212-0.313,47.595-0.171,74.333-0.171c5.188,0,22.331-1.908,24.635,0.424c2.312,2.338,0.394,17.957,0.394,22.188c0,4.247,2.027,19.799-0.427,22.223c-1.931,1.908-23.315,0.39-26.407,0.39C68.62,51.438,62.74,52.083,54.173,50.635"/>
        <path  style="fill:none;stroke:#000000;stroke-linecap:round;" d="M16.12,22.606C41.963,10.43,73.69,11.886,99.698,23.45"/>
        <path  style="fill:none;stroke:#000000;stroke-width:2;stroke-linecap:round;" d="M56.13,60.084c6.184,0.656,11.529,3.045,16.432,6.783"/>
        <path  style="fill:none;stroke:#000000;stroke-width:2;stroke-linecap:round;" d="M72.562,66.867c0.604-0.603,1.207-1.206,1.812-1.808"/>
        <path  style="fill:none;stroke:#000000;stroke-width:2;stroke-linecap:round;" d="M72.562,66.867c3.706,4.761,5.689,10.142,6.785,16.13"/>
        <path  style="fill:none;stroke:#000000;stroke-width:2;stroke-linecap:round;" d="M79.347,82.998c0.668,0.138,1.479,0.131,2.261,0.15"/>
        <path  style="fill:none;stroke:#000000;stroke-width:2;stroke-linecap:round;" d="M73.015,98.676c0.572,0.899,1.311,1.723,2.159,2.362"/>
        <path  style="fill:none;stroke:#000000;stroke-width:2;stroke-linecap:round;" d="M55.979,105.46c0.229,0.903,0.291,2.03,0.302,3.014"/>
        <path  style="fill:none;stroke:#000000;stroke-width:2;stroke-linecap:round;" d="M39.671,99.046c-0.99,0.377-1.4,1.471-2.285,1.992"/>
        <path  style="fill:none;stroke:#000000;stroke-width:2;stroke-linecap:round;" d="M30.955,83.148c0.827,0.023,1.582-0.025,2.26-0.15"/>
        <path  style="fill:none;stroke:#000000;stroke-width:2;stroke-linecap:round;" d="M33.215,82.998c0.559-6.107,3.387-11.088,6.383-16.129"/>
        <path  style="fill:none;stroke:#000000;stroke-width:2;stroke-linecap:round;" d="M39.598,66.867c-0.605-0.84-1.41-1.557-2.211-2.211"/>
        <path  style="fill:none;stroke:#000000;stroke-width:2;stroke-linecap:round;" d="M39.598,66.867c5.108-3.205,10.228-6.357,16.532-6.783"/>
        <path  style="fill:none;stroke:#000000;stroke-width:2;stroke-linecap:round;" d="M56.13,60.084c0.164-0.841,0.134-1.876,0.149-2.865"/>
        <path  style="fill:none;stroke:#000000;stroke-width:2;stroke-linecap:round;" d="M56.281,105.057c6.416,1.21,11.875-2.638,16.733-6.381"/>
        <path  style="fill:none;stroke:#000000;stroke-width:2;stroke-linecap:round;" d="M73.015,98.676c3.563-4.78,5.286-9.921,6.332-15.679"/>
        <path  style="fill:none;stroke:#000000;stroke-width:2;stroke-linecap:round;" d="M33.215,82.998c0.794,5.965,2.867,11.248,6.456,16.049"/>
        <path  style="fill:none;stroke:#000000;stroke-width:2;stroke-linecap:round;" d="M39.671,99.046c4.983,3.476,9.951,6.787,16.309,6.414"/>
        <path  style="fill:none;stroke:#000000;stroke-width:2;stroke-linecap:round;" d="M56.068,102.348c-23.407,0.005-24.675-33.824-3.851-37.874C77.608,59.534,83.946,101.268,56.068,102.348"/>
        <path  style="fill:none;stroke:#000000;stroke-linecap:round;" d="M23.113,130.155c-1.057-0.342-0.62-2.022-1.917-2.151"/>
        <ellipse cx="55.087"  cy="83.423" rx="1.583" ry="1.5"/>
        <path  style="fill:none;stroke:#686868;stroke-width:2.908;stroke-linecap:round;" d="M55.337,47.589c-9.313-11.524-21.5-21.26-30.661-32.845"/>
    </g>
    <g gorn="0.2"  id="_x2B___x2F__-">
        <g  transform="matrix(1 0 0 1 96.3801 119.0923)">
            <text  style="fill:#FF0303; font-family:'MyriadPro-Regular'; font-size:14.4723;">+</text>
        </g>
        <g  transform="matrix(1 0 0 1 7.738 119.0923)">
            <text  style="font-family:'MyriadPro-Regular'; font-size:14.4723;">-</text>
        </g>
    </g>
    <g gorn="0.3"  id="_x2B_">
        <path gorn="0.3.0"  style="fill:none;stroke:#FF0000;stroke-width:5;stroke-linecap:round;" id="connectorPlus_1_" d="M88.34,126.933c0,2.48-0.328,4.867-0.4,7.238"/>
    </g>
    <g gorn="0.4"  id="_x2D_">
        <path gorn="0.4.0"  style="fill:none;stroke:#000000;stroke-width:5;stroke-linecap:round;" id="connectorMinus" d="M25.296,127.617c0,2.108-0.412,4.141-0.501,6.154"/>
    </g>
    <g gorn="0.5"  style="display:none;" id="Volt">
        <g  transform="matrix(1.5379 0 0 1 44.7283 37.52)">
            <text  style="display:inline; font-family:'DroidSansMono'; font-size:24.2413;">V</text>
        </g>
        <path  style="display:inline;fill:none;stroke:#000000;stroke-width:2;stroke-linecap:round;" d="M41.789,69.585c4.436,4.519,8.871,9.039,13.306,13.557"/>
        <line  style="display:inline;fill:none;stroke:#000000;stroke-width:2;stroke-linecap:round;" y1="67.72" x1="40.29" y2="67.72" x2="40.29"/>
    </g>
    <g gorn="0.6"  id="Amper">
        <g  transform="matrix(1.5379 0 0 1 45.7405 37.3994)">
            <text  style="font-family:'DroidSansMono'; font-size:23.513;">A</text>
        </g>
        <path  style="fill:none;stroke:#000000;stroke-width:2;stroke-linecap:round;" d="M69.938,69.268c-4.531,4.423-9.063,8.846-13.594,13.268"/>
        <line  style="fill:none;stroke:#000000;stroke-width:2;stroke-linecap:round;" y1="67.635" x1="72.247" y2="67.635" x2="72.247"/>
    </g>
    <g gorn="0.7"  style="display:none;" id="Ohm">
        <g  transform="matrix(1.5379 0 0 1 44.9255 37.3994)">
            <text  style="display:inline; font-family:'DroidSansMono'; font-size:23.513;">Ω</text>
        </g>
        <path  style="display:inline;fill:none;stroke:#000000;stroke-width:2;stroke-linecap:round;" d="M55.85,63.647c-0.288,6.325-0.576,12.651-0.863,18.977"/>
        <line  style="display:inline;fill:none;stroke:#000000;stroke-width:2;stroke-linecap:round;" y1="60.583" x1="56.432" y2="60.583" x2="56.432"/>
    </g>
    <g gorn="0.8"  id="Connectors">
        <rect width="4.024" x="85.927" y="132.366" gorn="0.8.0"  height="4.021" style="fill:none;" id="plus"/>
        <rect width="4.02" x="23.215" y="131.97" gorn="0.8.1"  height="4.019" style="fill:none;" id="minus"/>
    </g>
    <g gorn="0.9"  id="Guides"/>
</svg>
