<?xml version="1.0" encoding="utf-8"?>
<!-- Generator: Adobe Illustrator 13.0.0, SVG Export Plug-In . SVG Version: 6.00 Build 14948)  -->
<!DOCTYPE svg PUBLIC "-//W3C//DTD SVG 1.0//EN" "http://www.w3.org/TR/2001/REC-SVG-20010904/DTD/svg10.dtd">
<svg version="1.0" id="Top" xmlns="http://www.w3.org/2000/svg" xmlns:xlink="http://www.w3.org/1999/xlink" x="0px" y="0px"
	 width="112.305px" height="136.671px" viewBox="0 0 112.305 136.671" style="enable-background:new 0 0 112.305 136.671;"
	 xml:space="preserve">
<g id="Layer_2">
	<path style="fill:#FFDF43;" d="M21.004,128.742c-4.626-2.178-16.253,2.963-19.553-0.324c-1.915-1.906-0.348-14.66-0.348-15.955
		c0-31.284,0-61.624,0-94.672c0-4.797-1.035-13.97,0.324-15.333C3.648,0.229,23.502,2.11,28.24,2.11c25.683,0,42.605,0,68.141,0
		c0.541,0,10.955-1.635,12.921,0.325c1.764,1.758,0.346,11.423,0.346,15.957c0,33.247,0,61.154,0,95.275
		c0,3.396,1.942,12.521-0.411,14.828c-4.044,3.961-14.865-2.442-20.692,0.248"/>
</g>
<g id="Layer_2_1_">
	<path style="fill:none;stroke:#000000;stroke-width:2;stroke-linecap:round;" d="M22.006,128.373
		c-4.608,0.13-16.256,2.965-19.555-0.323c-1.915-1.908-0.347-14.663-0.347-15.96c0-31.281,0-61.618,0-94.669
		c0-4.797-1.034-13.97,0.325-15.333C4.648-0.139,24.5,1.741,29.241,1.741c25.685,0,42.607,0,68.142,0
		c0.539,0,10.955-1.635,12.922,0.325c1.764,1.758,0.344,11.423,0.344,15.957c0,33.247,0,61.155,0,95.276
		c0,3.396,1.943,12.522-0.41,14.827c-4.045,3.959-14.431-0.338-20.693,0.246"/>
	<path style="fill:none;stroke:#000000;stroke-width:2;stroke-linecap:round;" d="M20.708,128.375c23.258,0,46.517,0,69.777,0"/>
	<path style="fill:#EDEDED;stroke:#000000;stroke-width:2.1418;stroke-linecap:round;" d="M54.173,50.635
		c-10.711,1.444-22.875,0.803-36.081,0.803c-2.343,0-10.379,0.577-11.368-0.424c-2.202-2.229-0.39-19.507-0.39-22.792
		c0-8.846-0.115-14.57,0.137-21.838c24.212-0.313,47.595-0.171,74.333-0.171c5.188,0,22.331-1.908,24.635,0.424
		c2.312,2.338,0.394,17.957,0.394,22.188c0,4.247,2.027,19.799-0.427,22.223c-1.931,1.908-23.315,0.39-26.407,0.39
		C68.62,51.438,62.74,52.083,54.173,50.635"/>
	<path style="fill:none;stroke:#000000;stroke-linecap:round;" d="M16.12,22.606C41.963,10.43,73.69,11.886,99.698,23.45"/>
	<path style="fill:none;stroke:#686868;stroke-width:2.908;stroke-linecap:round;" d="M55.337,47.589
		c-9.313-11.524-21.5-21.26-30.661-32.845"/>
</g>
<text transform="matrix(1.5379 0 0 1 29.3938 108.3979)" style="display:none;enable-background:new    ; font-family:'DroidSansMono'; font-size:58.5229;">V</text>
<text transform="matrix(1.5379 0 0 1 28.4084 107.9731)" style="font-family:'DroidSansMono'; font-size:60.7486;">A</text>
<g style="display:none;">
	<title>Layer 1</title>
	<path id="text2161" style="display:inline;" d="M69.568,101.743v0.754h12.323l2.379-5.349h2.418l-4.636,11.312H62.036
		c3.171-4.187,5.567-8.407,7.192-12.652c1.626-4.249,2.438-8.389,2.438-12.422c0-5.37-1.261-9.426-3.784-12.157
		c-2.523-2.737-6.269-4.105-11.235-4.105c-4.993,0-8.751,1.358-11.277,4.076c-2.521,2.713-3.783,6.775-3.783,12.187
		c0,4.053,0.807,8.183,2.417,12.394c1.611,4.206,4.016,8.434,7.214,12.681H31.164l-4.599-11.312h2.417l2.338,5.349h12.366v-0.754
		c-4.36-3.548-7.491-6.799-9.392-9.747c-1.903-2.948-2.854-5.964-2.854-9.046c0-5.177,2.417-9.479,7.251-12.902
		c4.837-3.419,10.822-5.133,17.955-5.133c7.135,0,13.11,1.714,17.932,5.147c4.823,3.433,7.233,7.73,7.233,12.888
		c0,3.063-0.941,6.06-2.833,8.988C77.092,94.868,73.953,98.135,69.568,101.743L69.568,101.743z"/>
</g>
<g id="Guides" style="display:none;">
</g>
</svg>
