<?xml version='1.0' encoding='utf-8'?>
<!DOCTYPE svg>
<!-- Generator: Adobe Illustrator 13.0.0, SVG Export Plug-In . SVG Version: 6.00 Build 14948)  -->
<svg xmlns="http://www.w3.org/2000/svg" width="1.55979in" x="0px" version="1.0" y="0px" gorn="0"  height="1.89821in" viewBox="0 0 112.305 136.671" xmlns:xml="http://www.w3.org/XML/1998/namespace" style="enable-background:new 0 0 112.305 136.671;" id="Layer_1" xml:space="preserve">
    <desc >
        <referenceFile >Meter-V.svg</referenceFile>
    </desc>
    <g gorn="0.1"  id="Layer_2">
        <path fill="#FFDF43"  stroke="#000000" style="stroke-linecap:round;" stroke-width="1" d="M22.733,129.265c-4.626-2.178-16.253,2.963-19.553-0.324c-1.915-1.906-0.347-14.66-0.347-15.955c0-31.285,0-61.624,0-94.673c0-4.797-1.035-13.97,0.324-15.333C5.376,0.753,25.23,2.634,29.969,2.634c25.682,0,42.605,0,68.141,0c0.541,0,10.955-1.635,12.92,0.325c1.765,1.758,0.347,11.423,0.347,15.957c0,33.247,0,61.154,0,95.275c0,3.396,1.942,12.521-0.41,14.828c-4.045,3.961-14.867-2.441-20.693,0.248"/>
    </g>
    <line fill="none"  stroke="#000000" style="stroke-linecap:round;" y1="132.896" x1="87.939" y2="131.751" stroke-width="1" x2="87.396"/>
    <line fill="none"  stroke="#000000" style="stroke-linecap:round;" y1="131.751" x1="87.396" y2="131.69" stroke-width="1" x2="86.129"/>
    <path fill="none"  stroke="#000000" style="stroke-linecap:round;" stroke-width="1" d="M28.843,127.882c-1.33,0.479-0.783,2.834-2.412,3.014"/>
    <line fill="none"  stroke="#000000" style="stroke-linecap:round;" y1="131.087" x1="25.226" y2="132.896" stroke-width="1" x2="24.02"/>
    <path fill="none"  stroke="#000000" style="stroke-linecap:round;" stroke-width="2" d="M21.909,128.375c-4.627-2.179-16.256,2.965-19.555-0.323c-1.915-1.908-0.347-14.663-0.347-15.96c0-31.281,0-61.618,0-94.669c0-4.797-1.034-13.97,0.325-15.333c2.219-2.226,22.07-0.346,26.812-0.346c25.685,0,42.607,0,68.143,0c0.539,0,10.955-1.635,12.921,0.325c1.764,1.758,0.344,11.423,0.344,15.957c0,33.247,0,61.155,0,95.276c0,3.396,1.943,12.522-0.41,14.827c-4.045,3.959-14.866-2.44-20.692,0.246"/>
    <path fill="none"  stroke="#000000" style="stroke-linecap:round;" stroke-width="1" d="M21.608,126.867c0.412-6.97-6.266-16.22,1.811-17.488c9.023-1.416,5.59,9.031,4.823,17.488"/>
    <line fill="none"  stroke="#000000" style="stroke-linecap:round;" y1="126.867" x1="28.24" y2="128.375" stroke-width="1" x2="28.543"/>
    <path fill="none"  stroke="#000000" style="stroke-linecap:round;" stroke-width="2" d="M28.543,128.375c18.894,0,37.788,0,56.683,0"/>
    <line fill="none"  stroke="#000000" style="stroke-linecap:round;" y1="128.375" x1="85.226" y2="126.867" stroke-width="1" x2="84.924"/>
    <path fill="none"  stroke="#000000" style="stroke-linecap:round;" stroke-width="1" d="M84.924,126.867c-0.778-7.916-5.271-18.297,3.618-17.488c8.205,0.748,2.287,9.653,3.016,17.488"/>
    <line fill="none"  stroke="#000000" style="stroke-linecap:round;" y1="126.867" x1="91.558" y2="128.375" stroke-width="1" x2="89.446"/>
    <line fill="none"  stroke="#000000" style="stroke-linecap:round;" y1="128.375" x1="21.909" y2="126.867" stroke-width="1" x2="21.608"/>
    <path fill="#EDEDED"  stroke="#000000" style="stroke-linecap:round;" stroke-width="2.1418" d="M54.173,50.635c-10.711,1.444-22.875,0.803-36.081,0.803c-2.343,0-10.379,0.577-11.368-0.424c-2.202-2.229-0.39-19.507-0.39-22.792c0-8.846-0.115-14.57,0.137-21.838c24.212-0.313,47.595-0.171,74.333-0.171c5.188,0,22.331-1.908,24.635,0.424c2.312,2.338,0.394,17.957,0.394,22.188c0,4.247,2.027,19.799-0.427,22.223c-1.931,1.908-23.315,0.39-26.407,0.39C68.62,51.438,62.74,52.083,54.173,50.635"/>
    <path fill="none"  stroke="#000000" style="stroke-linecap:round;" stroke-width="1" d="M16.12,22.606C41.963,10.43,73.69,11.886,99.698,23.45"/>
    <path fill="none"  stroke="#000000" style="stroke-linecap:round;" stroke-width="2" d="M56.13,60.084c6.184,0.656,11.529,3.045,16.432,6.783"/>
    <path fill="none"  stroke="#000000" style="stroke-linecap:round;" stroke-width="2" d="M72.562,66.867c0.604-0.603,1.207-1.206,1.812-1.808"/>
    <path fill="none"  stroke="#000000" style="stroke-linecap:round;" stroke-width="2" d="M72.562,66.867c3.706,4.761,5.689,10.142,6.785,16.13"/>
    <path fill="none"  stroke="#000000" style="stroke-linecap:round;" stroke-width="2" d="M79.347,82.998c0.668,0.138,1.479,0.131,2.261,0.15"/>
    <path fill="none"  stroke="#000000" style="stroke-linecap:round;" stroke-width="2" d="M73.015,98.676c0.572,0.899,1.311,1.723,2.159,2.362"/>
    <path fill="none"  stroke="#000000" style="stroke-linecap:round;" stroke-width="2" d="M55.979,105.46c0.229,0.903,0.291,2.03,0.302,3.014"/>
    <path fill="none"  stroke="#000000" style="stroke-linecap:round;" stroke-width="2" d="M39.671,99.046c-0.99,0.377-1.4,1.471-2.285,1.992"/>
    <path fill="none"  stroke="#000000" style="stroke-linecap:round;" stroke-width="2" d="M30.955,83.148c0.827,0.023,1.582-0.025,2.26-0.15"/>
    <path fill="none"  stroke="#000000" style="stroke-linecap:round;" stroke-width="2" d="M33.215,82.998c0.559-6.107,3.387-11.088,6.383-16.129"/>
    <path fill="none"  stroke="#000000" style="stroke-linecap:round;" stroke-width="2" d="M39.598,66.867c-0.605-0.84-1.41-1.557-2.211-2.211"/>
    <path fill="none"  stroke="#000000" style="stroke-linecap:round;" stroke-width="2" d="M39.598,66.867c5.108-3.205,10.228-6.357,16.532-6.783"/>
    <path fill="none"  stroke="#000000" style="stroke-linecap:round;" stroke-width="2" d="M56.13,60.084c0.164-0.841,0.134-1.876,0.149-2.865"/>
    <path fill="none"  stroke="#000000" style="stroke-linecap:round;" stroke-width="2" d="M56.281,105.057c6.416,1.21,11.875-2.638,16.733-6.381"/>
    <path fill="none"  stroke="#000000" style="stroke-linecap:round;" stroke-width="2" d="M73.015,98.676c3.563-4.78,5.286-9.921,6.332-15.679"/>
    <path fill="none"  stroke="#000000" style="stroke-linecap:round;" stroke-width="2" d="M33.215,82.998c0.794,5.965,2.867,11.248,6.456,16.049"/>
    <path fill="none"  stroke="#000000" style="stroke-linecap:round;" stroke-width="2" d="M39.671,99.046c4.983,3.476,9.951,6.787,16.309,6.414"/>
    <path fill="none"  stroke="#000000" style="stroke-linecap:round;" stroke-width="2" d="M56.068,102.348c-23.407,0.005-24.675-33.824-3.851-37.874C77.608,59.534,83.946,101.268,56.068,102.348"/>
    <path fill="none"  stroke="#000000" style="stroke-linecap:round;" stroke-width="2" d="M55.095,83.142"/>
    <path fill="none"  stroke="#000000" style="stroke-linecap:round;" stroke-width="2" d="M41.789,69.585"/>
    <path fill="none"  stroke="#000000" style="stroke-linecap:round;" stroke-width="1" d="M23.113,130.155c-1.057-0.342-0.62-2.022-1.917-2.151"/>
    <ellipse cx="55.087"  cy="83.423" rx="1.583" ry="1.5"/>
    <g gorn="0.37"  id="_x2B___x2F__-">
        <g  transform="matrix(1 0 0 1 96.3801 119.0923)">
            <g >
                <text  style="fill:#FF0303; font-family:Droid Sans; font-size:14.4723;">+</text>
            </g>
        </g>
        <g  transform="matrix(1 0 0 1 7.738 119.0923)">
            <g >
                <text  style="font-family:Droid Sans; font-size:14.4723;">-</text>
            </g>
        </g>
    </g>
    <g gorn="0.38"  id="_x2B_">
        <path fill="none" gorn="0.38.0"  stroke="#FF0000" style="stroke-linecap:round;" id="connectorPlus_1_" stroke-width="5" d="M88.34,126.933c0,2.48-0.328,4.867-0.4,7.238"/>
    </g>
    <g gorn="0.39"  id="_x2D_">
        <path fill="none" gorn="0.39.0"  stroke="#000000" style="stroke-linecap:round;" id="connectorMinus" stroke-width="5" d="M25.296,127.617c0,2.108-0.412,4.141-0.501,6.154"/>
    </g>
    <g gorn="0.40"  id="ConnectorsMinus">
        <rect width="4.02" x="23.215" y="131.97" gorn="0.40.0"  height="4.019" style="fill:none;" id="connector4pin"/>
    </g>
    <g gorn="0.41"  id="ConnectorsPlus">
        <rect width="4.024" x="85.927" y="132.366" gorn="0.41.0"  height="4.021" style="fill:none;" id="connector3pin"/>
    </g>
    <path fill="none"  stroke="#5E5E5E" style="stroke-linecap:round;" stroke-width="2.908" d="M55.337,47.589c-9.313-11.524-21.5-21.26-30.661-32.845"/>
    <g gorn="0.43"  id="Zeiger">
        <g gorn="0.43.0"  id="VMeter">
            <line fill="none"  stroke="#000000" style="stroke-linecap:round;" y1="67.179" x1="39.707" y2="67.179" stroke-width="2" x2="39.707"/>
            <path fill="none"  stroke="#000000" style="stroke-linecap:round;" stroke-width="2" d="M41.738,69.638c4.437,4.519,8.871,9.039,13.307,13.557"/>
        </g>
        <g gorn="0.43.1"  style="display:none;" id="OMeter_1_">
            <line fill="none"  stroke="#000000" style="display:inline;stroke-linecap:round;" y1="60.574" x1="56.314" y2="60.574" stroke-width="2" x2="56.314"/>
            <path fill="none"  stroke="#000000" style="display:inline;stroke-linecap:round;" stroke-width="2" d="M55.947,63.742c-0.185,6.33-0.37,12.66-0.555,18.987"/>
        </g>
        <g gorn="0.43.2"  style="display:none;" id="AMeter">
            <line fill="none"  stroke="#000000" style="display:inline;stroke-linecap:round;" y1="67.563" x1="72.128" y2="67.563" stroke-width="2" x2="72.128"/>
            <path fill="none"  stroke="#000000" style="display:inline;stroke-linecap:round;" stroke-width="2" d="M69.627,69.528c-4.625,4.328-9.254,8.655-13.878,12.982"/>
        </g>
    </g>
    <g gorn="0.44"  id="Beschriftung">
        <g  transform="matrix(1.329 0 0 1 39.593 39.4224)">
            <g >
                <text  style="display:none;enable-background:new    ; font-family:Droid Sans; font-size:31.8047;">Î©</text>
            </g>
        </g>
        <g gorn="0.44.1"  id="V">
            <g  transform="matrix(1.5379 0 0 1 40.1101 39.8423)">
                <g >
                    <text  style="fill:#010101; font-family:Droid Sans; font-size:33.2842;">V</text>
                </g>
            </g>
        </g>
        <g gorn="0.44.2"  style="display:none;" id="A">
            <g  transform="matrix(1.5959 0 0 1 39.9216 39.2251)">
                <g >
                    <text  style="display:inline;fill:#010101; font-family:Droid Sans; font-size:32.0737;">A</text>
                </g>
            </g>
        </g>
    </g>
</svg>
