<?xml version="1.0" encoding="utf-8"?>
<!-- Generator: Adobe Illustrator 13.0.0, SVG Export Plug-In . SVG Version: 6.00 Build 14948)  -->
<!DOCTYPE svg PUBLIC "-//W3C//DTD SVG 1.0//EN" "http://www.w3.org/TR/2001/REC-SVG-20010904/DTD/svg10.dtd">
<svg version="1.0" xmlns="http://www.w3.org/2000/svg" xmlns:xlink="http://www.w3.org/1999/xlink" x="0px" y="0px"
	 width="112.305px" height="136.671px" viewBox="0 0 112.305 136.671" style="enable-background:new 0 0 112.305 136.671;"
	 xml:space="preserve">
<g id="Layer_2">
	<path style="fill-rule:evenodd;clip-rule:evenodd;fill:#FFDF43;stroke:#000000;stroke-linecap:round;" d="M21.004,128.742
		c-4.626-2.178-16.253,2.963-19.553-0.324c-1.915-1.908-0.346-14.661-0.346-15.956c0-31.285,0-61.623,0-94.673
		c0-4.797-1.035-13.97,0.324-15.333C3.648,0.229,23.502,2.11,28.24,2.11c25.683,0,42.607,0,68.141,0
		c0.541,0,10.955-1.635,12.921,0.325c1.764,1.758,0.346,11.423,0.346,15.957c0,33.247,0,61.155,0,95.276
		c0,3.396,1.942,12.522-0.411,14.828c-4.044,3.96-14.867-2.443-20.694,0.247"/>
</g>
<g id="Layer_1">
	
		<line style="fill-rule:evenodd;clip-rule:evenodd;fill:none;stroke:#000000;stroke-linecap:round;" x1="87.939" y1="132.896" x2="87.396" y2="131.752"/>
	
		<line style="fill-rule:evenodd;clip-rule:evenodd;fill:none;stroke:#000000;stroke-linecap:round;" x1="87.396" y1="131.752" x2="86.129" y2="131.69"/>
	<path style="fill-rule:evenodd;clip-rule:evenodd;fill:none;stroke:#000000;stroke-linecap:round;" d="M28.843,127.882
		c-1.33,0.479-0.783,2.834-2.412,3.014"/>
	
		<line style="fill-rule:evenodd;clip-rule:evenodd;fill:none;stroke:#000000;stroke-linecap:round;" x1="25.226" y1="131.088" x2="24.02" y2="132.896"/>
	<path style="fill-rule:evenodd;clip-rule:evenodd;fill:none;stroke:#000000;stroke-width:2;stroke-linecap:round;" d="
		M21.909,128.374c-4.627-2.178-16.254,2.966-19.553-0.324c-1.915-1.908-0.347-14.663-0.347-15.958c0-31.283,0-61.62,0-94.671
		c0-4.797-1.034-13.97,0.325-15.333c2.219-2.226,22.072-0.346,26.812-0.346c25.683,0,42.607,0,68.141,0
		c0.539,0,10.955-1.635,12.921,0.325c1.764,1.758,0.344,11.423,0.344,15.957c0,33.247,0,61.155,0,95.276
		c0,3.397,1.943,12.524-0.41,14.828c-4.045,3.96-14.866-2.441-20.694,0.247"/>
	<path style="fill-rule:evenodd;clip-rule:evenodd;fill:none;stroke:#000000;stroke-linecap:round;" d="M21.608,126.867
		c0.412-6.97-6.266-16.22,1.809-17.488c9.025-1.416,5.59,9.031,4.823,17.488"/>
	
		<line style="fill-rule:evenodd;clip-rule:evenodd;fill:none;stroke:#000000;stroke-linecap:round;" x1="28.24" y1="126.867" x2="28.543" y2="128.374"/>
	<path style="fill-rule:evenodd;clip-rule:evenodd;fill:none;stroke:#000000;stroke-width:2;stroke-linecap:round;" d="
		M28.543,128.374c18.894,0,37.788,0,56.683,0"/>
	
		<line style="fill-rule:evenodd;clip-rule:evenodd;fill:none;stroke:#000000;stroke-linecap:round;" x1="85.226" y1="128.374" x2="84.924" y2="126.867"/>
	<path style="fill-rule:evenodd;clip-rule:evenodd;fill:none;stroke:#000000;stroke-linecap:round;" d="M84.924,126.867
		c-0.778-7.916-5.271-18.297,3.618-17.488c8.205,0.747,2.287,9.653,3.016,17.488"/>
	
		<line style="fill-rule:evenodd;clip-rule:evenodd;fill:none;stroke:#000000;stroke-linecap:round;" x1="91.558" y1="126.867" x2="89.446" y2="128.374"/>
	
		<line style="fill-rule:evenodd;clip-rule:evenodd;fill:none;stroke:#000000;stroke-linecap:round;" x1="21.909" y1="128.374" x2="21.608" y2="126.867"/>
	<path style="fill-rule:evenodd;clip-rule:evenodd;fill:#EDEDED;stroke:#000000;stroke-width:2.1418;stroke-linecap:round;" d="
		M54.173,50.635c-10.711,1.444-22.875,0.803-36.081,0.803c-2.343,0-10.379,0.577-11.368-0.424c-2.202-2.229-0.39-19.507-0.39-22.792
		c0-8.846-0.115-14.57,0.137-21.838c24.212-0.313,47.595-0.171,74.333-0.171c5.186,0,22.331-1.908,24.635,0.424
		c2.31,2.338,0.392,17.957,0.392,22.188c0,4.247,2.029,19.799-0.425,22.223c-1.931,1.908-23.317,0.39-26.409,0.39
		C68.62,51.438,62.74,52.083,54.173,50.635"/>
	<path style="fill-rule:evenodd;clip-rule:evenodd;fill:none;stroke:#000000;stroke-width:2.908;stroke-linecap:round;" d="
		M55.337,47.589c-9.313-11.524-21.5-21.26-30.661-32.845"/>
	<path style="fill-rule:evenodd;clip-rule:evenodd;fill:none;stroke:#000000;stroke-linecap:round;" d="M16.12,22.606
		c25.843-12.176,57.57-10.72,83.578,0.844"/>
	<path style="fill-rule:evenodd;clip-rule:evenodd;fill:none;stroke:#000000;stroke-width:2;stroke-linecap:round;" d="
		M56.13,60.084c6.184,0.656,11.529,3.045,16.432,6.783"/>
	<path style="fill-rule:evenodd;clip-rule:evenodd;fill:none;stroke:#000000;stroke-width:2;stroke-linecap:round;" d="
		M72.562,66.867c0.604-0.603,1.207-1.206,1.81-1.808"/>
	<path style="fill-rule:evenodd;clip-rule:evenodd;fill:none;stroke:#000000;stroke-width:2;stroke-linecap:round;" d="
		M72.562,66.867c3.706,4.761,5.689,10.142,6.785,16.131"/>
	<path style="fill-rule:evenodd;clip-rule:evenodd;fill:none;stroke:#000000;stroke-width:2;stroke-linecap:round;" d="
		M79.347,82.998c0.668,0.136,1.477,0.131,2.261,0.15"/>
	<path style="fill-rule:evenodd;clip-rule:evenodd;fill:none;stroke:#000000;stroke-width:2;stroke-linecap:round;" d="
		M73.015,98.676c0.572,0.9,1.309,1.723,2.159,2.362"/>
	<path style="fill-rule:evenodd;clip-rule:evenodd;fill:none;stroke:#000000;stroke-width:2;stroke-linecap:round;" d="
		M55.979,105.46c0.229,0.905,0.291,2.032,0.302,3.014"/>
	<path style="fill-rule:evenodd;clip-rule:evenodd;fill:none;stroke:#000000;stroke-width:2;stroke-linecap:round;" d="
		M39.671,99.046c-0.99,0.377-1.4,1.471-2.285,1.992"/>
	<path style="fill-rule:evenodd;clip-rule:evenodd;fill:none;stroke:#000000;stroke-width:2;stroke-linecap:round;" d="
		M30.955,83.148c0.827,0.024,1.582-0.026,2.26-0.15"/>
	<path style="fill-rule:evenodd;clip-rule:evenodd;fill:none;stroke:#000000;stroke-width:2;stroke-linecap:round;" d="
		M33.215,82.998c0.559-6.109,3.387-11.089,6.383-16.131"/>
	<path style="fill-rule:evenodd;clip-rule:evenodd;fill:none;stroke:#000000;stroke-width:2;stroke-linecap:round;" d="
		M39.598,66.867c-0.607-0.84-1.41-1.557-2.211-2.211"/>
	<path style="fill-rule:evenodd;clip-rule:evenodd;fill:none;stroke:#000000;stroke-width:2;stroke-linecap:round;" d="
		M39.598,66.867c5.108-3.205,10.226-6.357,16.532-6.783"/>
	<path style="fill-rule:evenodd;clip-rule:evenodd;fill:none;stroke:#000000;stroke-width:2;stroke-linecap:round;" d="
		M56.13,60.084c0.164-0.841,0.134-1.876,0.151-2.865"/>
	<path style="fill-rule:evenodd;clip-rule:evenodd;fill:none;stroke:#000000;stroke-width:2;stroke-linecap:round;" d="
		M56.281,105.057c6.416,1.21,11.875-2.638,16.733-6.381"/>
	<path style="fill-rule:evenodd;clip-rule:evenodd;fill:none;stroke:#000000;stroke-width:2;stroke-linecap:round;" d="
		M73.015,98.676c3.563-4.78,5.286-9.921,6.332-15.678"/>
	<path style="fill-rule:evenodd;clip-rule:evenodd;fill:none;stroke:#000000;stroke-width:2;stroke-linecap:round;" d="
		M33.215,82.998c0.794,5.965,2.867,11.248,6.456,16.048"/>
	<path style="fill-rule:evenodd;clip-rule:evenodd;fill:none;stroke:#000000;stroke-width:2;stroke-linecap:round;" d="
		M39.671,99.046c4.985,3.476,9.951,6.787,16.309,6.414"/>
	<path style="fill-rule:evenodd;clip-rule:evenodd;fill:none;stroke:#000000;stroke-width:2;stroke-linecap:round;" d="
		M56.068,102.348c-23.409,0.005-24.675-33.824-3.851-37.874C77.608,59.534,83.946,101.268,56.068,102.348"/>
	
		<line style="fill-rule:evenodd;clip-rule:evenodd;fill:none;stroke:#000000;stroke-width:2;stroke-linecap:round;" x1="40.29" y1="67.72" x2="40.29" y2="67.72"/>
	<path style="fill-rule:evenodd;clip-rule:evenodd;fill:none;stroke:#000000;stroke-width:2;stroke-linecap:round;" d="
		M41.789,69.586c4.436,4.518,8.871,9.038,13.306,13.556"/>
	<path style="fill-rule:evenodd;clip-rule:evenodd;fill:none;stroke:#000000;stroke-linecap:round;" d="M23.113,130.155
		c-1.057-0.342-0.622-2.023-1.917-2.151"/>
	<ellipse style="fill-rule:evenodd;clip-rule:evenodd;" cx="55.087" cy="83.423" rx="1.583" ry="1.5"/>
</g>
<g id="_x2B___x2F__-">
	<text transform="matrix(1 0 0 1 96.3799 119.0928)" style="fill:#FF0303; font-family:'MyriadPro-Regular'; font-size:14.4723;">+</text>
	<text transform="matrix(1 0 0 1 7.7378 119.0928)" style="font-family:'MyriadPro-Regular'; font-size:14.4723;">-</text>
</g>
<g id="_x2B_">
	
		<path id="connectorPlus_1_" style="fill-rule:evenodd;clip-rule:evenodd;fill:none;stroke:#000000;stroke-width:5;stroke-linecap:round;" d="
		M88.34,126.933c0,2.48-0.328,4.867-0.4,7.238"/>
</g>
<g id="_x2D_">
	
		<path id="connectorMinus" style="fill-rule:evenodd;clip-rule:evenodd;fill:none;stroke:#000000;stroke-width:5;stroke-linecap:round;" d="
		M25.296,127.617c0,2.108-0.412,4.141-0.501,6.154"/>
</g>
<g id="Layer_5">
</g>
<g id="Layer_6" style="display:none;">
	<text transform="matrix(1.5379 0 0 1 47.7378 39.8052)" style="display:inline; font-family:'OCRAStd'; font-size:20.4862;">A</text>
</g>
<g id="Layer_7" style="display:none;">
	
		<text transform="matrix(1.5379 0 0 1 44.9233 39.8052)" style="display:inline; font-family:'MarkerFelt-Wide'; font-size:20.4862;">Ω</text>
</g>
<g id="ConnectorsMinus">
	<rect id="Minus" x="23.215" y="131.97" style="fill-rule:evenodd;clip-rule:evenodd;fill:none;" width="4.02" height="4.019"/>
</g>
<g id="ConnectorsPlus">
	<rect id="Plus_1_" x="85.927" y="132.366" style="fill-rule:evenodd;clip-rule:evenodd;fill:none;" width="4.024" height="4.02"/>
</g>
</svg>
